<?xml version="1.0" standalone="no"?>
<!DOCTYPE svg PUBLIC "-//W3C//DTD SVG 20010904//EN"
 "http://www.w3.org/TR/2001/REC-SVG-20010904/DTD/svg10.dtd">
<svg version="1.0" xmlns="http://www.w3.org/2000/svg"
 width="320.000000pt" height="320.000000pt" viewBox="0 0 320.000000 320.000000"
 preserveAspectRatio="xMidYMid meet">
<metadata>
Created by potrace 1.14, written by Peter Selinger 2001-2017
</metadata>
<g transform="translate(0.000000,320.000000) scale(0.100000,-0.100000)"
fill="#000000" stroke="none">
<path d="M1350 3191 c0 -4 -6 -8 -12 -8 -28 -1 -218 -54 -296 -83 -135 -49
-248 -110 -400 -215 -68 -47 -253 -230 -313 -310 -117 -155 -237 -395 -268
-537 -6 -25 -16 -58 -22 -74 -6 -16 -13 -42 -16 -59 -3 -16 -8 -34 -13 -40
-13 -17 -12 -548 2 -556 6 -4 13 -16 14 -26 4 -25 9 -43 22 -76 7 -16 12 -35
12 -43 0 -51 105 -293 175 -404 19 -30 38 -62 42 -70 4 -8 12 -19 18 -25 6 -5
31 -36 55 -69 41 -54 184 -206 194 -206 3 0 20 -14 38 -30 74 -68 257 -178
398 -238 40 -17 120 -43 273 -87 27 -7 55 -11 62 -9 7 3 15 -2 18 -11 6 -14
38 -15 272 -15 146 1 265 5 265 9 0 6 93 34 155 45 97 19 326 121 443 198 15
10 34 21 42 25 15 7 14 7 110 84 271 220 445 500 541 869 12 47 26 89 30 95
13 14 11 563 -2 567 -5 2 -12 12 -14 23 -2 11 -4 21 -5 23 -3 2 -4 5 -14 47
-37 143 -103 306 -168 414 -21 34 -38 67 -38 71 0 5 -3 10 -7 12 -5 2 -24 26
-43 53 -92 133 -260 295 -407 393 -34 23 -67 42 -72 42 -6 0 -11 4 -11 8 0 16
-281 141 -352 157 -86 19 -196 48 -209 55 -10 5 -21 4 -29 -3 -10 -9 -11 -9
-6 0 5 10 -46 12 -229 12 -129 0 -235 -4 -235 -8z m249 -1389 c7 -13 6 -19 -2
-19 -7 0 -13 9 -13 19 0 10 1 18 3 18 1 0 7 -8 12 -18z m11 -42 c0 -5 -4 -10
-10 -10 -5 0 -10 5 -10 10 0 6 5 10 10 10 6 0 10 -4 10 -10z m7 -35 c5 -4 2
-5 -6 0 -11 6 -13 4 -8 -8 9 -23 0 -21 -13 2 -7 15 -7 19 5 17 8 -1 18 -6 22
-11z m-19 -41 c4 2 8 -9 8 -25 2 -28 -6 -36 -19 -22 -4 3 -2 12 4 19 7 8 7 14
-1 19 -5 3 -10 12 -9 18 0 9 2 8 6 -1 2 -6 8 -10 11 -8z"/>
</g>
</svg>
